<svg xmlns="http://www.w3.org/2000/svg" version="1.1" xmlns:xlink="http://www.w3.org/1999/xlink" xmlns:svgjs="http://svgjs.com/svgjs" width="512" height="512" x="0" y="0" viewBox="0 0 512 512" style="enable-background:new 0 0 512 512" xml:space="preserve" class=""><g><path d="M310.093 200.397a7.514 7.514 0 0 0-7.515 7.515v49.941c-11.13 3.258-19.286 13.552-19.286 25.722 0 14.778 12.023 26.801 26.801 26.801s26.801-12.023 26.801-26.801c0-12.169-8.156-22.464-19.286-25.722v-49.941a7.514 7.514 0 0 0-7.515-7.515zm11.771 83.178c0 6.49-5.281 11.771-11.771 11.771s-11.771-5.281-11.771-11.771c0-6.491 5.281-11.772 11.771-11.772s11.771 5.28 11.771 11.772z" fill="#ffffff" data-original="#000000" class=""></path><path d="m451.068 156.771 18.391-22.888c3.964-4.932 5.769-11.112 5.084-17.402s-3.778-11.937-8.71-15.9l-14.291-11.483c-10.179-8.181-25.12-6.552-33.301 3.627l-18.882 23.498a188.269 188.269 0 0 0-56.414-19.503V64.778h3.537c13.684 0 24.817-11.133 24.817-24.817V24.816C371.3 11.132 360.167 0 346.483 0h-72.78c-13.684 0-24.816 11.132-24.816 24.816V39.96c0 13.684 11.132 24.817 24.816 24.817h3.538V96.72a188.05 188.05 0 0 0-25.505 6.341c.548-4.491-.932-9.125-4.359-12.551l-11.113-11.115c-5.361-5.358-13.676-5.979-19.773-1.476l-13.283 9.811a106.867 106.867 0 0 0-31.161-12.914l-2.454-16.324c-1.127-7.496-7.446-12.937-15.027-12.937h-15.715c-7.581 0-13.9 5.44-15.027 12.937l-2.454 16.324A106.855 106.855 0 0 0 90.209 87.73l-13.283-9.811c-6.095-4.503-14.412-3.884-19.773 1.478L46.04 90.51c-5.361 5.361-5.982 13.677-1.478 19.774l9.812 13.283a106.811 106.811 0 0 0-12.914 31.162l-16.323 2.453c-7.497 1.126-12.938 7.446-12.938 15.028v15.715c0 7.579 5.44 13.899 12.937 15.028l16.324 2.453a106.861 106.861 0 0 0 12.914 31.162l-9.812 13.283c-4.504 6.097-3.883 14.413 1.478 19.774l11.112 11.112c5.362 5.36 13.678 5.982 19.773 1.478l13.283-9.812a106.79 106.79 0 0 0 30.198 12.655c.041 5.077.278 10.209.731 15.335a99.385 99.385 0 0 0-4.087 2.341l-11.833-8.741c-5.84-4.312-13.805-3.718-18.938 1.416l-10.183 10.183c-5.135 5.133-5.73 13.098-1.416 18.939l8.74 11.833a98.48 98.48 0 0 0-11.59 27.965l-14.543 2.186c-7.178 1.08-12.389 7.133-12.389 14.392v14.401c0 7.26 5.211 13.313 12.39 14.393l14.541 2.186a98.48 98.48 0 0 0 11.59 27.965l-8.739 11.832c-4.315 5.839-3.72 13.803 1.414 18.94l10.184 10.183c5.134 5.133 13.098 5.728 18.938 1.415l11.833-8.741a98.496 98.496 0 0 0 27.965 11.59l2.186 14.541c1.08 7.179 7.133 12.39 14.392 12.39h14.401c7.26 0 13.313-5.211 14.392-12.39l2.186-14.541a98.496 98.496 0 0 0 27.965-11.59l11.833 8.742c5.84 4.311 13.803 3.716 18.938-1.416l10.184-10.184c.93-.93 1.706-1.956 2.336-3.042a190.103 190.103 0 0 0 46.264 5.704c32.783 0 65.098-8.498 93.452-24.577 27.486-15.587 50.862-38.005 67.602-64.83a7.514 7.514 0 1 0-12.749-7.957c-15.42 24.708-36.951 45.357-62.266 59.712-26.097 14.8-55.848 22.622-86.038 22.622a174.97 174.97 0 0 1-47.094-6.434c-.032-.045-.058-.091-.091-.135l-8.741-11.833a98.704 98.704 0 0 0 7.641-15.488c15.504 5.325 31.709 8.026 48.284 8.026 82.056 0 148.813-66.757 148.813-148.813 0-51.738-26.245-98.983-70.206-126.382a7.515 7.515 0 0 0-7.949 12.755 135.959 135.959 0 0 1 18.494 13.845l-13.653 13.653c-5.771 5.916 1.993 17.721 10.628 10.628l13.682-13.682c20.059 22.357 32.063 50.947 33.754 81.668h-19.276c-4.151 0-7.515 3.364-7.515 7.515s3.364 7.515 7.515 7.515h19.28c-1.738 31.237-14.242 59.644-33.853 81.571l-13.587-13.587a7.515 7.515 0 1 0-10.628 10.628l13.587 13.587c-21.928 19.612-50.335 32.116-81.572 33.854v-19.281c0-4.151-3.364-7.515-7.515-7.515s-7.515 3.364-7.515 7.515v19.281a132.81 132.81 0 0 1-32.551-5.901l10.271-1.544c7.18-1.079 12.391-7.132 12.391-14.393v-14.401c0-7.258-5.21-13.311-12.389-14.392l-.002-.001-14.54-2.185a98.52 98.52 0 0 0-11.59-27.965l8.742-11.834c4.312-5.841 3.716-13.805-1.417-18.938l-10.183-10.182c-5.133-5.134-13.098-5.729-18.939-1.417l-11.833 8.741a98.477 98.477 0 0 0-27.965-11.589l-2.185-14.54c-.993-6.608-6.203-11.537-12.686-12.283 3.754-26.038 15.086-50.273 32.629-69.88l13.635 13.634c5.894 6.377 17.345-2.58 10.627-10.628l-13.629-13.629c22.68-20.285 51.341-32.124 81.614-33.81v19.279c0 4.151 3.364 7.515 7.515 7.515s7.515-3.364 7.515-7.515v-19.282c12.868.711 25.471 3.243 37.559 7.567a7.515 7.515 0 0 0 5.063-14.151c-16.062-5.746-32.93-8.66-50.137-8.66-37.573 0-73.447 14.042-101.013 39.54-25.701 23.772-42.066 55.484-46.542 89.911h-.944c-7.26 0-13.312 5.211-14.392 12.391l-2.186 14.541a98.851 98.851 0 0 0-9.289 2.769 175.135 175.135 0 0 1-.312-10.338c0-96.318 78.36-174.679 174.678-174.679 96.319 0 174.679 78.36 174.679 174.679 0 23.109-4.438 45.556-13.193 66.721a7.514 7.514 0 0 0 6.942 10.388c2.95 0 5.75-1.749 6.947-4.645 9.511-22.995 14.334-47.375 14.334-72.465.002-48.705-18.454-93.177-48.731-126.804zM153.061 304.779a7.514 7.514 0 0 0 6.046-6.268l2.897-19.269h13.582l2.897 19.269a7.512 7.512 0 0 0 6.046 6.268c11.548 2.166 22.334 6.637 32.058 13.286a7.515 7.515 0 0 0 8.707-.159l15.678-11.581 9.604 9.605-11.581 15.678a7.517 7.517 0 0 0-.159 8.707c6.65 9.725 11.12 20.511 13.285 32.058a7.514 7.514 0 0 0 6.27 6.046l19.268 2.895v13.583l-19.269 2.896a7.515 7.515 0 0 0-6.269 6.046c-2.165 11.547-6.635 22.333-13.285 32.058a7.515 7.515 0 0 0 .159 8.707l11.581 15.678-9.604 9.605-15.678-11.581a7.513 7.513 0 0 0-8.707-.159c-9.724 6.649-20.51 11.119-32.058 13.286a7.516 7.516 0 0 0-6.046 6.268l-2.897 19.268h-13.582l-2.897-19.268a7.514 7.514 0 0 0-6.046-6.268c-11.549-2.167-22.335-6.637-32.058-13.286a7.512 7.512 0 0 0-8.707.159l-15.678 11.581-9.604-9.605 11.581-15.678a7.515 7.515 0 0 0 .158-8.707c-6.649-9.724-11.119-20.51-13.285-32.058a7.514 7.514 0 0 0-6.269-6.046l-19.269-2.896v-13.583l19.269-2.895a7.515 7.515 0 0 0 6.269-6.046c2.166-11.548 6.636-22.334 13.285-32.058a7.517 7.517 0 0 0-.158-8.707L87.013 315.93l9.604-9.605 15.678 11.581a7.52 7.52 0 0 0 8.707.159c9.725-6.649 20.51-11.12 32.059-13.286zM263.916 39.96V24.816c0-5.396 4.39-9.787 9.787-9.787h72.78c5.397 0 9.788 4.39 9.788 9.787V39.96c0 5.397-4.391 9.788-9.788 9.788h-72.78c-5.397 0-9.787-4.39-9.787-9.788zM85.464 257.222l-17.468 12.903a.167.167 0 0 1-.216-.018l-11.112-11.112a.164.164 0 0 1-.016-.216l12.903-17.468a7.517 7.517 0 0 0 .159-8.707c-7.31-10.691-12.224-22.548-14.605-35.243a7.515 7.515 0 0 0-6.269-6.046l-21.468-3.226a.167.167 0 0 1-.142-.165V172.21c0-.082.061-.153.141-.164l21.469-3.227a7.517 7.517 0 0 0 6.269-6.046c2.381-12.696 7.295-24.553 14.605-35.243a7.513 7.513 0 0 0-.159-8.706l-12.903-17.468a.166.166 0 0 1 .016-.217l11.111-11.111a.165.165 0 0 1 .217-.017l17.468 12.902a7.515 7.515 0 0 0 8.706.159c10.693-7.31 22.55-12.224 35.243-14.605a7.513 7.513 0 0 0 6.046-6.268l3.227-21.469a.167.167 0 0 1 .165-.142h15.715c.083 0 .152.06.165.142l3.227 21.469a7.513 7.513 0 0 0 6.046 6.268c12.693 2.381 24.551 7.295 35.243 14.605a7.512 7.512 0 0 0 8.706-.159L225.42 90.01a.166.166 0 0 1 .217.015l11.112 11.114c.059.059.066.15.016.216l-8.024 10.863a190.293 190.293 0 0 0-42.272 27.578c-10.536-10.455-24.637-16.339-39.762-16.339-18.179 0-35.374 8.823-45.996 23.603a7.513 7.513 0 0 0 1.716 10.487 7.485 7.485 0 0 0 4.38 1.414 7.502 7.502 0 0 0 6.108-3.13c7.807-10.86 20.439-17.345 33.793-17.345 10.895 0 21.068 4.158 28.76 11.565-19.171 19.327-34.222 42.743-43.711 68.812-15.753-6.091-26.63-21.485-26.63-38.795a7.515 7.515 0 1 0-15.03 0c0 23.865 15.193 45.058 37.09 53.13a188.599 188.599 0 0 0-6.289 36.45 92.186 92.186 0 0 1-26.728-12.585 7.51 7.51 0 0 0-8.706.159zM292.271 94.71V64.778h35.645V94.71c-5.87-.55-11.812-.844-17.823-.844s-11.953.294-17.822.844zm120.187 29.209 17.5-21.779c2.991-3.719 8.452-4.316 12.172-1.326l14.29 11.482a8.605 8.605 0 0 1 3.184 5.812 8.598 8.598 0 0 1-1.859 6.359l-17.243 21.458a191.151 191.151 0 0 0-28.044-22.006z" fill="#ffffff" data-original="#000000" class=""></path><path d="M168.794 430.053c23.13 0 41.946-18.817 41.946-41.947s-18.817-41.946-41.946-41.946-41.946 18.816-41.946 41.946c0 23.129 18.817 41.947 41.946 41.947zm-26.917-41.947c0-4.215.976-8.206 2.711-11.761a188.893 188.893 0 0 0 28.423 38.346 27.014 27.014 0 0 1-4.217.333c-14.842-.001-26.917-12.076-26.917-26.918zm53.834 0c0 7.718-3.27 14.683-8.491 19.595-12.805-12.662-23.475-27.059-31.815-42.93a26.747 26.747 0 0 1 13.389-3.581c14.842 0 26.917 12.074 26.917 26.916z" fill="#ffffff" data-original="#000000" class=""></path></g></svg>