<svg xmlns="http://www.w3.org/2000/svg" version="1.1" xmlns:xlink="http://www.w3.org/1999/xlink" xmlns:svgjs="http://svgjs.com/svgjs" width="512" height="512" x="0" y="0" viewBox="0 0 62.618 62.317" style="enable-background:new 0 0 512 512" xml:space="preserve" class=""><g><path d="M21.698 40.332 22.281 38H11.719l.583 2.332C12.842 42.492 14.774 44 17 44s4.158-1.508 4.698-3.668zM14.285 40h5.43c-.367 1.186-1.461 2-2.715 2s-2.348-.814-2.715-2zM12 34h2v-1c0-1.654-1.346-3-3-3s-3 1.346-3 3v1h2v-1a1.001 1.001 0 0 1 2 0zM22 33a1.001 1.001 0 0 1 2 0v1h2v-1c0-1.654-1.346-3-3-3s-3 1.346-3 3v1h2z" fill="#ffffff" data-original="#000000" class=""></path><path d="M53.382 18h9.236l-2.5-5 2.5-5h-9.236l-2 4H44c0-6.617-5.383-12-12-12-4.917 0-9.147 2.975-10.999 7.217a27.003 27.003 0 0 0-11.189 6.804C4.366 14.24 0 18.726 0 24.224c0 1.306.246 2.583.731 3.797l.925 2.312A2.991 2.991 0 0 0 0 33c0 1.654 1.346 3 3 3h1.051c.396 5.165 3.818 9.484 8.496 11.198l-.326.979a12.758 12.758 0 0 0-9.036 10.929L2.895 62h28.21l-.207-2.069a26.777 26.777 0 0 0 8.14-1.867L44 62.317l6.531-5.599A4.199 4.199 0 0 0 52 53.525v-.197c0-1.124-.438-2.18-1.232-2.975a4.756 4.756 0 0 0-.654-.538c2.307-2.896 4-6.252 4.957-9.816H57c1.654 0 3-1.346 3-3v-8c0-1.654-1.346-3-3-3h-1.939a27.154 27.154 0 0 0-6.9-12h3.221zm1.236-2-1-2h4.764l1 2zm0-6h4.764l-1 2h-4.764zM32 2c5.514 0 10 4.486 10 10h-2c0-4.411-3.589-8-8-8s-8 3.589-8 8c0 .553.075 1.096.186 1.631-.643.17-1.3.288-1.969.338A10.063 10.063 0 0 1 22 12c0-5.514 4.486-10 10-10zm1.911 19.817a14.304 14.304 0 0 0-.372-1.973A7.944 7.944 0 0 0 39.741 14h2.058a9.918 9.918 0 0 1-7.888 7.817zM30 32h1a1.001 1.001 0 0 1 0 2h-1zm-3.922-19.057A6.163 6.163 0 0 1 26 12c0-3.309 2.691-6 6-6s6 2.691 6 6h-2c0-2.206-1.794-4-4-4-2.131 0-3.863 1.68-3.978 3.783l-.577.385c-.439.293-.896.55-1.367.775zM32 12v2c-1.103 0-2-.897-2-2s.897-2 2-2 2 .897 2 2zm0 4c1.474 0 2.75-.81 3.444-2h2.212a5.962 5.962 0 0 1-4.758 3.931 14.176 14.176 0 0 0-.967-1.938c.023 0 .045.007.069.007zm-11.827-2h-7.401a24.987 24.987 0 0 1 7.473-4.417A11.959 11.959 0 0 0 20 12c0 .673.063 1.341.173 2zM2 33c0-.552.449-1 1-1h1v2H3c-.551 0-1-.448-1-1zm2-4.022V30h-.323l-1.089-2.722A8.197 8.197 0 0 1 2 24.224C2 19.689 5.689 16 10.224 16h11.171c2.303 0 4.541-.608 6.517-1.765C30.518 16.571 32 19.876 32 23.434c0 1.575-.296 3.115-.881 4.577L30.323 30H30c0-2.206-1.794-4-4-4h-9.615a6.92 6.92 0 0 1-6.457-4.372l-1.857.743c.259.648.587 1.253.973 1.807l-2.62 1.123A3.998 3.998 0 0 0 4 28.978zM6 35v-6.022c0-.801.476-1.522 1.212-1.838l3.23-1.384a8.925 8.925 0 0 0 5.942 2.245H26c1.103 0 2 .897 2 2v5c0 6.065-4.935 11-11 11S6 41.065 6 35zm6.902 15.069 2.966 1.483-1.55 1.034-1.496-2.493.08-.024zM16.847 56h.306l.667 4h-1.64zm.535-2h-.764l-.204-.407.586-.391.586.39zm2.3-1.414-1.55-1.034 2.966-1.483.08.023zM17 48c.866 0 1.71-.089 2.529-.251l.248.744L17 49.882l-2.777-1.389.248-.744c.819.162 1.663.251 2.529.251zM5.175 59.305a10.753 10.753 0 0 1 5.763-8.464l2.744 4.574 1.055-.703.223.446L14.153 60H10v-2.586a4.387 4.387 0 0 0-1.292-3.121l-1.415 1.414A2.4 2.4 0 0 1 8 57.414V60H5.105zM26 60v-2.586c0-.645.251-1.251.708-1.707l-1.415-1.414A4.384 4.384 0 0 0 24 57.414V60h-4.153l-.807-4.843.223-.446 1.055.703 2.744-4.574a10.75 10.75 0 0 1 5.763 8.464l.07.696zm24-6.475c0 .645-.281 1.256-.771 1.676L44 59.683l-5.15-4.414c-.54-.463-.85-1.137-.85-1.94 0-.589.229-1.144.646-1.561C39.142 51.272 39.8 51 40.5 51s1.358.272 1.854.768L44 53.414l1.646-1.646c.991-.99 2.716-.99 3.707 0 .418.417.647.971.647 1.56zM58 29v8c0 .552-.449 1-1 1h-6.781l-.947 3.787c-.063.25-.482.249-.545.001L47.781 38H41c-.551 0-1-.448-1-1v-8c0-.551.449-1 1-1h16c.551 0 1 .449 1 1zm-5.014-3H41c-1.654 0-3 1.346-3 3v8c0 1.654 1.346 3 3 3h5.219l.568 2.273C47.042 43.29 47.952 44 49 44s1.958-.71 2.213-1.728L51.781 40H53a25.047 25.047 0 0 1-4.857 9.063c-.213-.03-.425-.063-.643-.063a4.59 4.59 0 0 0-3.268 1.354l-.232.232-.232-.232C42.894 49.48 41.734 49 40.5 49s-2.394.48-3.268 1.354c-.794.794-1.232 1.85-1.232 3.068 0 1.188.493 2.303 1.33 3.133a24.816 24.816 0 0 1-6.696 1.368 12.76 12.76 0 0 0-8.854-9.745l-.326-.979c4.678-1.714 8.1-6.033 8.496-11.198H31c1.654 0 3-1.346 3-3a2.991 2.991 0 0 0-1.656-2.667l.632-1.579a14.28 14.28 0 0 0 1.004-4.925 11.901 11.901 0 0 0 9.847-9.829h1.404A25.154 25.154 0 0 1 52.986 26z" fill="#ffffff" data-original="#000000" class=""></path><path d="M44 32h2v2h-2zM48 32h2v2h-2zM52 32h2v2h-2z" fill="#ffffff" data-original="#000000" class=""></path></g></svg>