<svg xmlns="http://www.w3.org/2000/svg" version="1.1" xmlns:xlink="http://www.w3.org/1999/xlink" xmlns:svgjs="http://svgjs.com/svgjs" width="512" height="512" x="0" y="0" viewBox="0 0 682.667 682.667" style="enable-background:new 0 0 512 512" xml:space="preserve" class=""><g><defs><clipPath id="a" clipPathUnits="userSpaceOnUse"><path d="M0 512h512V0H0Z" fill="#fb5a0f" data-original="#000000"></path></clipPath></defs><g clip-path="url(#a)" transform="matrix(1.33333 0 0 -1.33333 0 682.667)"><path d="M0 0c.01.01 0 .01 0 .01" style="stroke-width:15;stroke-linecap:round;stroke-linejoin:round;stroke-miterlimit:10;stroke-dasharray:none;stroke-opacity:1" transform="translate(240.267 211.47)" fill="none" stroke="#fb5a0f" stroke-width="15" stroke-linecap="round" stroke-linejoin="round" stroke-miterlimit="10" stroke-dasharray="none" stroke-opacity="" data-original="#000000" class=""></path><path d="M0 0c3.7-88.57 2.431-177.15-3.819-265.72-.591-8.4-6.931-15.28-15.271-16.45-74.689-10.46-149.389-10.46-224.08 0-8.33 1.17-14.68 8.05-15.269 16.45-.971 13.81-1.831 27.63-2.561 41.45" style="stroke-width:15;stroke-linecap:round;stroke-linejoin:round;stroke-miterlimit:10;stroke-dasharray:none;stroke-opacity:1" transform="translate(502.43 411.58)" fill="none" stroke="#fb5a0f" stroke-width="15" stroke-linecap="round" stroke-linejoin="round" stroke-miterlimit="10" stroke-dasharray="none" stroke-opacity="" data-original="#000000" class=""></path><path d="M0 0c-1.069 68.05.79 136.1 5.601 204.15.589 8.4 6.939 15.28 15.269 16.45 74.691 10.46 149.391 10.46 224.08 0 8.34-1.17 14.68-8.05 15.271-16.45.889-12.66 1.689-25.31 2.37-37.97" style="stroke-width:15;stroke-linecap:round;stroke-linejoin:round;stroke-miterlimit:10;stroke-dasharray:none;stroke-opacity:1" transform="translate(238.39 275.33)" fill="none" stroke="#fb5a0f" stroke-width="15" stroke-linecap="round" stroke-linejoin="round" stroke-miterlimit="10" stroke-dasharray="none" stroke-opacity="" data-original="#000000" class=""></path><path d="M0 0c4.418 6.957 12.195 11.575 21.041 11.575 13.774 0 24.931-11.165 24.931-24.94 0-13.764-11.157-24.93-24.931-24.93-10.046 0-18.712 5.948-22.65 14.524" style="stroke-width:15;stroke-linecap:round;stroke-linejoin:round;stroke-miterlimit:10;stroke-dasharray:none;stroke-opacity:1" transform="translate(347.693 354.573)" fill="none" stroke="#fb5a0f" stroke-width="15" stroke-linecap="round" stroke-linejoin="round" stroke-miterlimit="10" stroke-dasharray="none" stroke-opacity="" data-original="#000000" class=""></path><path d="M0 0c0 13.769-11.162 24.931-24.931 24.931-13.768 0-24.93-11.162-24.93-24.931s11.162-24.93 24.93-24.93C-11.162-24.93 0-13.769 0 0Z" style="stroke-width:15;stroke-linecap:round;stroke-linejoin:round;stroke-miterlimit:10;stroke-dasharray:none;stroke-opacity:1" transform="translate(473.284 341.213)" fill="none" stroke="#fb5a0f" stroke-width="15" stroke-linecap="round" stroke-linejoin="round" stroke-miterlimit="10" stroke-dasharray="none" stroke-opacity="" data-original="#000000" class=""></path><path d="M0 0c0 13.769-11.162 24.931-24.931 24.931-13.768 0-24.93-11.162-24.93-24.931s11.162-24.931 24.93-24.931C-11.162-24.931 0-13.769 0 0Z" style="stroke-width:15;stroke-linecap:round;stroke-linejoin:round;stroke-miterlimit:10;stroke-dasharray:none;stroke-opacity:1" transform="translate(473.284 207.585)" fill="none" stroke="#fb5a0f" stroke-width="15" stroke-linecap="round" stroke-linejoin="round" stroke-miterlimit="10" stroke-dasharray="none" stroke-opacity="" data-original="#000000" class=""></path><path d="M0 0c0 13.769-11.161 24.931-24.931 24.931C-38.699 24.931-49.86 13.769-49.86 0s11.161-24.931 24.929-24.931C-11.161-24.931 0-13.769 0 0Z" style="stroke-width:15;stroke-linecap:round;stroke-linejoin:round;stroke-miterlimit:10;stroke-dasharray:none;stroke-opacity:1" transform="translate(393.666 207.585)" fill="none" stroke="#fb5a0f" stroke-width="15" stroke-linecap="round" stroke-linejoin="round" stroke-miterlimit="10" stroke-dasharray="none" stroke-opacity="" data-original="#000000" class=""></path><path d="M0 0c0 13.769-11.161 24.931-24.93 24.931S-49.86 13.769-49.86 0s11.161-24.93 24.93-24.93S0-13.769 0 0Z" style="stroke-width:15;stroke-linecap:round;stroke-linejoin:round;stroke-miterlimit:10;stroke-dasharray:none;stroke-opacity:1" transform="translate(323.668 452.834)" fill="none" stroke="#fb5a0f" stroke-width="15" stroke-linecap="round" stroke-linejoin="round" stroke-miterlimit="10" stroke-dasharray="none" stroke-opacity="" data-original="#000000" class=""></path><path d="M0 0c0 13.769-11.162 24.931-24.931 24.931-13.768 0-24.93-11.162-24.93-24.931s11.162-24.93 24.93-24.93C-11.162-24.93 0-13.769 0 0Z" style="stroke-width:15;stroke-linecap:round;stroke-linejoin:round;stroke-miterlimit:10;stroke-dasharray:none;stroke-opacity:1" transform="translate(473.284 452.834)" fill="none" stroke="#fb5a0f" stroke-width="15" stroke-linecap="round" stroke-linejoin="round" stroke-miterlimit="10" stroke-dasharray="none" stroke-opacity="" data-original="#000000" class=""></path><path d="m0 0 48.061-25.969V-74.83" style="stroke-width:15;stroke-linecap:round;stroke-linejoin:round;stroke-miterlimit:10;stroke-dasharray:none;stroke-opacity:1" transform="translate(320.674 440.978)" fill="none" stroke="#fb5a0f" stroke-width="15" stroke-linecap="round" stroke-linejoin="round" stroke-miterlimit="10" stroke-dasharray="none" stroke-opacity="" data-original="#000000" class=""></path><path d="M0 0v-83.767" style="stroke-width:15;stroke-linecap:round;stroke-linejoin:round;stroke-miterlimit:10;stroke-dasharray:none;stroke-opacity:1" transform="translate(448.353 316.283)" fill="none" stroke="#fb5a0f" stroke-width="15" stroke-linecap="round" stroke-linejoin="round" stroke-miterlimit="10" stroke-dasharray="none" stroke-opacity="" data-original="#000000" class=""></path><path d="M0 0c7.26 7.22 14.42 14.54 21.46 21.98 3.37 3.55 3.49 9.08.29 12.79-.99 1.15-2.07 2.22-3.22 3.21a9.534 9.534 0 0 1-12.79-.29 985.783 985.783 0 0 1-21.97-21.46" style="stroke-width:15;stroke-linecap:round;stroke-linejoin:round;stroke-miterlimit:10;stroke-dasharray:none;stroke-opacity:1" transform="translate(330.91 315.4)" fill="none" stroke="#fb5a0f" stroke-width="15" stroke-linecap="round" stroke-linejoin="round" stroke-miterlimit="10" stroke-dasharray="none" stroke-opacity="" data-original="#000000" class=""></path><path d="M0 0a2232.944 2232.944 0 0 1 84.217 84.296c7.516 7.936 7.797 20.292.649 28.568a69.564 69.564 0 0 1-7.187 7.187c-8.277 7.148-20.631 6.867-28.569-.649a2225.5 2225.5 0 0 1-84.296-84.216" style="stroke-width:15;stroke-linecap:round;stroke-linejoin:round;stroke-miterlimit:10;stroke-dasharray:none;stroke-opacity:1" transform="translate(242.575 208.112)" fill="none" stroke="#fb5a0f" stroke-width="15" stroke-linecap="round" stroke-linejoin="round" stroke-miterlimit="10" stroke-dasharray="none" stroke-opacity="" data-original="#000000" class=""></path><path d="M0 0a417.83 417.83 0 0 1 36.086 35.925c5.647 6.358 6.507 15.424 2.578 22.621a19.92 19.92 0 0 1-2.518 3.619A311.214 311.214 0 0 1 7.098 91.213c-1.13.99-2.35 1.829-3.619 2.519-7.198 3.929-16.264 3.069-22.622-2.579a417.808 417.808 0 0 1-35.924-36.085" style="stroke-width:15;stroke-linecap:round;stroke-linejoin:round;stroke-miterlimit:10;stroke-dasharray:none;stroke-opacity:1" transform="translate(203.911 149.566)" fill="none" stroke="#fb5a0f" stroke-width="15" stroke-linecap="round" stroke-linejoin="round" stroke-miterlimit="10" stroke-dasharray="none" stroke-opacity="" data-original="#000000" class=""></path><path d="m0 0-82.37 82.37c-6.529 6.529-17.114 6.529-23.644 0-6.529-6.53-6.529-17.115 0-23.644l82.37-82.37c6.529-6.529 17.115-6.529 23.644 0S6.529-6.529 0 0Z" style="stroke-width:15;stroke-linecap:round;stroke-linejoin:round;stroke-miterlimit:10;stroke-dasharray:none;stroke-opacity:1" transform="translate(217.563 135.917)" fill="none" stroke="#fb5a0f" stroke-width="15" stroke-linecap="round" stroke-linejoin="round" stroke-miterlimit="10" stroke-dasharray="none" stroke-opacity="" data-original="#000000" class=""></path><path d="M0 0c27.07 21.57 53.271 38.93 53.271 38.93" style="stroke-width:15;stroke-linecap:round;stroke-linejoin:round;stroke-miterlimit:10;stroke-dasharray:none;stroke-opacity:1" transform="translate(62.14 151.85)" fill="none" stroke="#fb5a0f" stroke-width="15" stroke-linecap="round" stroke-linejoin="round" stroke-miterlimit="10" stroke-dasharray="none" stroke-opacity="" data-original="#000000" class=""></path><path d="M0 0c-12.26-12.62-22.189-27.38-29.159-43.62-.111-.25-.221-.5-.32-.75-5.111-12.01-2.361-25.92 6.87-35.15l35-35c9.229-9.22 23.139-11.97 35.149-6.87.25.11.5.21.74.32 20.851 8.95 39.26 22.77 53.84 40.15 25.71 30.65 48.42 64.9 48.42 64.9" style="stroke-width:15;stroke-linecap:round;stroke-linejoin:round;stroke-miterlimit:10;stroke-dasharray:none;stroke-opacity:1" transform="translate(39.52 132.15)" fill="none" stroke="#fb5a0f" stroke-width="15" stroke-linecap="round" stroke-linejoin="round" stroke-miterlimit="10" stroke-dasharray="none" stroke-opacity="" data-original="#000000" class=""></path><path d="M0 0v-39.889" style="stroke-width:15;stroke-linecap:round;stroke-linejoin:round;stroke-miterlimit:10;stroke-dasharray:none;stroke-opacity:1" transform="translate(361.755 137.78)" fill="none" stroke="#fb5a0f" stroke-width="15" stroke-linecap="round" stroke-linejoin="round" stroke-miterlimit="10" stroke-dasharray="none" stroke-opacity="" data-original="#000000" class=""></path><path d="M0 0h-39.889" style="stroke-width:15;stroke-linecap:round;stroke-linejoin:round;stroke-miterlimit:10;stroke-dasharray:none;stroke-opacity:1" transform="translate(255.053 403.041)" fill="none" stroke="#fb5a0f" stroke-width="15" stroke-linecap="round" stroke-linejoin="round" stroke-miterlimit="10" stroke-dasharray="none" stroke-opacity="" data-original="#000000" class=""></path><path d="M0 0h-39.889" style="stroke-width:15;stroke-linecap:round;stroke-linejoin:round;stroke-miterlimit:10;stroke-dasharray:none;stroke-opacity:1" transform="translate(255.053 373.79)" fill="none" stroke="#fb5a0f" stroke-width="15" stroke-linecap="round" stroke-linejoin="round" stroke-miterlimit="10" stroke-dasharray="none" stroke-opacity="" data-original="#000000" class=""></path><path d="M0 0v-39.889" style="stroke-width:15;stroke-linecap:round;stroke-linejoin:round;stroke-miterlimit:10;stroke-dasharray:none;stroke-opacity:1" transform="translate(389.765 137.78)" fill="none" stroke="#fb5a0f" stroke-width="15" stroke-linecap="round" stroke-linejoin="round" stroke-miterlimit="10" stroke-dasharray="none" stroke-opacity="" data-original="#000000" class=""></path><path d="M0 0v-39.889" style="stroke-width:15;stroke-linecap:round;stroke-linejoin:round;stroke-miterlimit:10;stroke-dasharray:none;stroke-opacity:1" transform="translate(456.677 137.78)" fill="none" stroke="#fb5a0f" stroke-width="15" stroke-linecap="round" stroke-linejoin="round" stroke-miterlimit="10" stroke-dasharray="none" stroke-opacity="" data-original="#000000" class=""></path></g></g></svg>