<svg xmlns="http://www.w3.org/2000/svg" version="1.1" xmlns:xlink="http://www.w3.org/1999/xlink" xmlns:svgjs="http://svgjs.com/svgjs" width="512" height="512" x="0" y="0" viewBox="0 0 72.369 72.369" style="enable-background:new 0 0 512 512" xml:space="preserve" class=""><g><path d="M45.016 22.917H30.959c-2.006 0-3.638 1.632-3.638 3.638s1.632 3.638 3.638 3.638h14.057c2.007 0 3.639-1.632 3.639-3.638s-1.633-3.638-3.639-3.638zm0 5.276H30.959c-.903 0-1.638-.735-1.638-1.638s.734-1.638 1.638-1.638h14.057c.903 0 1.639.735 1.639 1.638s-.736 1.638-1.639 1.638zM22.228 9.628C23.276 2.97 28.137 0 37.988 0c9.425 0 14.837 3.227 16.086 9.592a1 1 0 0 1-1.962.385C51.059 4.609 46.438 2 37.988 2 26.973 2 24.853 5.816 24.204 9.94a1 1 0 0 1-1.976-.312zm47.133 45.979c-.637-.641-1.545-1.037-2.727-1.216a18.237 18.237 0 0 0-.547-2.369V31.965a1 1 0 1 0-2 0v15.553c-1.488-2.44-3.452-4.499-5.593-6.163l.273-1.038a1 1 0 0 0-1.934-.509l-.078.297a26.773 26.773 0 0 0-4.4-2.34v-6.758c1.113-.575 3.652-2.349 3.529-6.535-.021-.669-.08-2.707-1.56-3.281-.68-.265-1.376-.088-1.97.208v-1.03l2.526-1.541a.999.999 0 1 0-1.041-1.707l-1.485.906V15.64c0-3.924-3.655-6.856-6.923-6.856H30.542c-3.946 0-6.923 2.948-6.923 6.856v2.394l-1.496-.913a.999.999 0 1 0-1.041 1.707l2.537 1.548v.961c-.55-.273-1.193-.432-1.832-.19-1.477.558-1.537 2.641-1.558 3.325-.124 4.196 2.331 5.97 3.39 6.538v6.818a26.139 26.139 0 0 0-4.26 2.276l-.078-.296a.999.999 0 1 0-1.934.508l.276 1.05c-3.905 3.082-6.697 7.155-7.817 11.559v-3.634a1 1 0 0 0-1-1h-.507V39.108l-.001-12.587c-.027-.832.116-3.435 1.101-4.452.261-.27.555-.395.927-.395a1 1 0 1 0 0-2c-.912 0-1.731.348-2.367 1.007-1.75 1.813-1.673 5.495-1.659 5.874v11.556H4.872v-.938H3.266v3.875h1.606v-.937h1.427v8.181H5.79a1 1 0 0 0-1 1v5.299c-.732.221-1.326.556-1.782 1.015-1.194 1.201-1.186 2.886-1.177 4.373l.001 6.939c0 3.005 2.445 5.45 5.45 5.45s5.45-2.445 5.45-5.45l.001-6.939c.009-1.487.018-3.172-1.177-4.373-.053-.053-.126-.09-.182-.14.527-4.486 3.015-8.753 6.806-11.983l2.046 7.786v19.403a1 1 0 1 0 2 0V52.143h1.394V53.8c0 3.859 3.141 7 7 7h14.737c3.859 0 6.999-3.14 6.999-7v-1.657h1.532v18.531a1 1 0 1 0 2 0V51.271l2.052-7.807c2.701 2.258 5.007 5.224 6.147 8.839v2.029c-1.452.13-2.544.54-3.274 1.275-1.194 1.201-1.186 2.886-1.177 4.373l.001 6.939c0 3.005 2.445 5.45 5.45 5.45s5.45-2.445 5.45-5.45l.001-6.939c.009-1.487.018-3.172-1.177-4.373zM6.79 50.292h1.017v3.314H6.79v-3.314zm.492 20.077a3.454 3.454 0 0 1-3.45-3.45l-.001-6.95c-.007-1.204-.013-2.34.595-2.952.491-.494 1.452-.745 2.856-.745s2.365.25 2.856.745c.406.409.536 1.054.577 1.795H8.391a1 1 0 1 0 0 2h2.343v1.822H8.391a1 1 0 1 0 0 2h2.342v1.688H8.391a1 1 0 1 0 0 2h2.037a3.453 3.453 0 0 1-3.146 2.047zm14.947-45.838c.033-1.155.256-1.477.242-1.504.209.007.759.375 1.105.741.012.013.029.018.042.03v4.74c-.701-.705-1.449-1.942-1.389-4.007zm-.233 25.612-2.098-7.984a24.163 24.163 0 0 1 3.72-2.142v10.126h-1.622zm31.581-27.1c.003.002.271.264.308 1.488.062 2.112-.772 3.362-1.529 4.057v-4.746c.408-.411.997-.814 1.221-.799zM50.355 53.8c0 2.757-2.242 5-4.999 5H30.619c-2.757 0-5-2.243-5-5V15.64c0-2.769 2.116-4.856 4.923-4.856h14.891c2.007 0 4.923 1.892 4.923 4.856V53.8zm3.762-3.657h-1.761V39.949a25.103 25.103 0 0 1 3.861 2.206l-2.1 7.988zm14.421 9.826-.001 6.95a3.454 3.454 0 0 1-3.45 3.45 3.45 3.45 0 0 1-3.145-2.047h2.037a1 1 0 1 0 0-2h-2.342v-1.688h2.342a1 1 0 1 0 0-2h-2.342v-1.822h2.343a1 1 0 1 0 0-2h-2.325c.041-.741.171-1.386.577-1.795.491-.494 1.452-.745 2.856-.745s2.365.25 2.856.745c.607.611.601 1.748.594 2.952zm-21.453 5.955a1 1 0 0 1-1 1H30.029a1 1 0 1 1 0-2h16.056a1 1 0 0 1 1 1z" style="" fill="#ffffff" data-original="#231f20" class=""></path></g></svg>