<svg xmlns="http://www.w3.org/2000/svg" version="1.1" xmlns:xlink="http://www.w3.org/1999/xlink" xmlns:svgjs="http://svgjs.com/svgjs" width="512" height="512" x="0" y="0" viewBox="0 0 512 512" style="enable-background:new 0 0 512 512" xml:space="preserve" class=""><g><path d="M392.85 468.09v-79.14M420.66 468.09v-79.14M393.54 219.49v-77.83c0-3.51 1.39-6.87 3.87-9.35l40.27-40.27M419.98 219.49v-69.2c0-2.02.8-3.96 2.23-5.39l34.16-34.17" style="stroke-width:15;stroke-linecap:round;stroke-linejoin:round;stroke-miterlimit:10;" fill="none" stroke="#fb5a0f" stroke-width="15" stroke-linecap="round" stroke-linejoin="round" stroke-miterlimit="10" data-original="#000000" class=""></path><path d="m502.566 54.547-8.702-8.702a6.603 6.603 0 0 0-7.607-1.244L445.01 65.092a14.325 14.325 0 0 0-3.752 2.697l-9.346 9.346a6.462 6.462 0 0 0 0 9.139l30.225 30.225a6.462 6.462 0 0 0 9.139 0l9.346-9.346a14.309 14.309 0 0 0 2.697-3.752l20.491-41.247a6.603 6.603 0 0 0-1.244-7.607zM450.43 247.23h10.23v23.26c0 2.46.65 4.88 1.88 7.01l3.78 6.53c1.24 2.13 1.89 4.55 1.89 7.01 0 7.73-6.27 14-13.99 14h-22.68" style="stroke-width:15;stroke-linecap:round;stroke-linejoin:round;stroke-miterlimit:10;" fill="none" stroke="#fb5a0f" stroke-width="15" stroke-linecap="round" stroke-linejoin="round" stroke-miterlimit="10" data-original="#000000" class=""></path><path d="M381.97 295.84v-69.77c0-3.64 2.94-6.58 6.58-6.58h81.64c4.14 0 7.49 3.35 7.49 7.49v12.76c0 4.14-3.35 7.49-7.49 7.49h-19.76c-10.43 0-18.89 8.45-18.89 18.88v92.83M381.97 358.94v-28.1" style="stroke-width:15;stroke-linecap:round;stroke-linejoin:round;stroke-miterlimit:10;" fill="none" stroke="#fb5a0f" stroke-width="15" stroke-linecap="round" stroke-linejoin="round" stroke-miterlimit="10" data-original="#000000" class=""></path><path d="M364.609 365.545v16.798a6.608 6.608 0 0 0 6.608 6.608h71.076a6.608 6.608 0 0 0 6.608-6.608v-16.798a6.608 6.608 0 0 0-6.608-6.608h-71.076a6.607 6.607 0 0 0-6.608 6.608zM326.04 172.23h22.57c6.03 0 10.92 4.9 10.92 10.93v54.27c0 6.04-4.89 10.93-10.92 10.93h-22.57M41 248.36H18.43c-6.04 0-10.93-4.89-10.93-10.93v-54.27c0-6.03 4.89-10.93 10.93-10.93H41M81.521 293.962V157.763c0-7.473 6.058-13.53 13.53-13.53h176.931c7.473 0 13.53 6.058 13.53 13.53v136.199c0 7.473-6.058 13.53-13.53 13.53H95.051c-7.472.001-13.53-6.057-13.53-13.53z" style="stroke-width:15;stroke-linecap:round;stroke-linejoin:round;stroke-miterlimit:10;" fill="none" stroke="#fb5a0f" stroke-width="15" stroke-linecap="round" stroke-linejoin="round" stroke-miterlimit="10" data-original="#000000" class=""></path><path d="M110.743 71.649H87.558c-25.715 0-46.562 20.846-46.562 46.562v197.076a61.817 61.817 0 0 0 12.679 37.507l55.061 72.133a39.224 39.224 0 0 0 31.179 15.425h87.203a39.224 39.224 0 0 0 31.179-15.425l55.061-72.133a61.815 61.815 0 0 0 12.679-37.507V118.211c0-25.715-20.846-46.562-46.562-46.562H145.743" style="stroke-width:15;stroke-linecap:round;stroke-linejoin:round;stroke-miterlimit:10;" fill="none" stroke="#fb5a0f" stroke-width="15" stroke-linecap="round" stroke-linejoin="round" stroke-miterlimit="10" data-original="#000000" class=""></path><path d="M109.521 178.829v94.068a6.596 6.596 0 0 0 6.596 6.596h134.8a6.596 6.596 0 0 0 6.596-6.596v-94.068a6.596 6.596 0 0 0-6.596-6.596h-134.8a6.596 6.596 0 0 0-6.596 6.596z" style="stroke-width:15;stroke-linecap:round;stroke-linejoin:round;stroke-miterlimit:10;" fill="none" stroke="#fb5a0f" stroke-width="15" stroke-linecap="round" stroke-linejoin="round" stroke-miterlimit="10" data-original="#000000" class=""></path></g></svg>