<svg xmlns="http://www.w3.org/2000/svg" version="1.1" xmlns:xlink="http://www.w3.org/1999/xlink" xmlns:svgjs="http://svgjs.com/svgjs" width="512" height="512" x="0" y="0" viewBox="0 0 682.667 682.667" style="enable-background:new 0 0 512 512" xml:space="preserve" class=""><g><defs><clipPath id="a" clipPathUnits="userSpaceOnUse"><path d="M0 512h512V0H0Z" fill="#fb5a0f" data-original="#000000"></path></clipPath></defs><g clip-path="url(#a)" transform="matrix(1.33333 0 0 -1.33333 0 682.667)"><path d="M0 0h-183.5c-4.03 0-7.68 1.63-10.32 4.27a14.524 14.524 0 0 0-4.27 10.31c0 8.06 6.53 14.59 14.59 14.59H73.37" style="stroke-width:15;stroke-linecap:round;stroke-linejoin:round;stroke-miterlimit:10;stroke-dasharray:none;stroke-opacity:1" transform="translate(318 464.45)" fill="none" stroke="#fb5a0f" stroke-width="15" stroke-linecap="round" stroke-linejoin="round" stroke-miterlimit="10" stroke-dasharray="none" stroke-opacity="" data-original="#000000" class=""></path><path d="M0 0h-43.41" style="stroke-width:15;stroke-linecap:round;stroke-linejoin:round;stroke-miterlimit:10;stroke-dasharray:none;stroke-opacity:1" transform="translate(391.37 464.45)" fill="none" stroke="#fb5a0f" stroke-width="15" stroke-linecap="round" stroke-linejoin="round" stroke-miterlimit="10" stroke-dasharray="none" stroke-opacity="" data-original="#000000" class=""></path><path d="M0 0h44.39c4.02 0 7.67-1.63 10.31-4.27 2.64-2.64 4.27-6.29 4.27-10.32 0-8.05-6.53-14.58-14.58-14.58H0" style="stroke-width:15;stroke-linecap:round;stroke-linejoin:round;stroke-miterlimit:10;stroke-dasharray:none;stroke-opacity:1" transform="translate(431.21 493.62)" fill="none" stroke="#fb5a0f" stroke-width="15" stroke-linecap="round" stroke-linejoin="round" stroke-miterlimit="10" stroke-dasharray="none" stroke-opacity="" data-original="#000000" class=""></path><path d="M0 0v69.53h39.84V0" style="stroke-width:15;stroke-linecap:round;stroke-linejoin:round;stroke-miterlimit:10;stroke-dasharray:none;stroke-opacity:1" transform="translate(391.37 434.97)" fill="none" stroke="#fb5a0f" stroke-width="15" stroke-linecap="round" stroke-linejoin="round" stroke-miterlimit="10" stroke-dasharray="none" stroke-opacity="" data-original="#000000" class=""></path><path d="M0 0v-61.814c0-15.204 4.572-29.849 13.227-42.357l20.984-30.338a39.158 39.158 0 0 0 6.988-22.381v-17.53c0-21.693-17.639-39.343-39.342-39.343-21.693 0-39.342 17.65-39.342 39.343v69.221c0 33.023-26.865 59.887-59.888 59.887h-8.864" style="stroke-width:15;stroke-linecap:round;stroke-linejoin:round;stroke-miterlimit:10;stroke-dasharray:none;stroke-opacity:1" transform="translate(393.742 256.366)" fill="none" stroke="#fb5a0f" stroke-width="15" stroke-linecap="round" stroke-linejoin="round" stroke-miterlimit="10" stroke-dasharray="none" stroke-opacity="" data-original="#000000" class=""></path><path d="M0 0v-61.814a39.156 39.156 0 0 1 6.988-22.381l20.994-30.338c8.655-12.509 13.227-27.154 13.227-42.357v-17.53c0-41.05-33.402-74.442-74.452-74.442-41.049 0-74.442 33.392-74.442 74.442v69.221c0 13.666-11.121 24.787-24.787 24.787h-8.865" style="stroke-width:15;stroke-linecap:round;stroke-linejoin:round;stroke-miterlimit:10;stroke-dasharray:none;stroke-opacity:1" transform="translate(428.841 256.366)" fill="none" stroke="#fb5a0f" stroke-width="15" stroke-linecap="round" stroke-linejoin="round" stroke-miterlimit="10" stroke-dasharray="none" stroke-opacity="" data-original="#000000" class=""></path><path d="M0 0c6.47-22.78 27.43-39.47 52.29-39.47h157.02c30.01 0 54.33 24.32 54.33 54.33v228.15c0 30.01-24.32 54.34-54.33 54.34H52.29c-30.01 0-54.34-24.33-54.34-54.34V29.86" style="stroke-width:15;stroke-linecap:round;stroke-linejoin:round;stroke-miterlimit:10;stroke-dasharray:none;stroke-opacity:1" transform="translate(23.86 72.81)" fill="none" stroke="#fb5a0f" stroke-width="15" stroke-linecap="round" stroke-linejoin="round" stroke-miterlimit="10" stroke-dasharray="none" stroke-opacity="" data-original="#000000" class=""></path><path d="M0 0h-102.508c-15.435 0-27.949 12.513-27.949 27.949v20.1c0 15.436 12.514 27.949 27.949 27.949H0c15.436 0 27.949-12.513 27.949-27.949v-20.1C27.949 12.513 15.436 0 0 0Z" style="stroke-width:15;stroke-linecap:round;stroke-linejoin:round;stroke-miterlimit:10;stroke-dasharray:none;stroke-opacity:1" transform="translate(205.91 251.694)" fill="none" stroke="#fb5a0f" stroke-width="15" stroke-linecap="round" stroke-linejoin="round" stroke-miterlimit="10" stroke-dasharray="none" stroke-opacity="" data-original="#000000" class=""></path><path d="M0 0v0c0 7.644 6.196 13.839 13.839 13.839h22.386c7.643 0 13.839-6.195 13.839-13.839v0c0-7.643-6.196-13.839-13.839-13.839H13.839C6.196-13.839 0-7.643 0 0Z" style="stroke-width:15;stroke-linecap:round;stroke-linejoin:round;stroke-miterlimit:10;stroke-dasharray:none;stroke-opacity:1" transform="translate(64.26 142.192)" fill="none" stroke="#fb5a0f" stroke-width="15" stroke-linecap="round" stroke-linejoin="round" stroke-miterlimit="10" stroke-dasharray="none" stroke-opacity="" data-original="#000000" class=""></path><path d="M0 0v0c0 7.644 6.196 13.839 13.839 13.839h22.386c7.643 0 13.839-6.195 13.839-13.839v0c0-7.643-6.196-13.839-13.839-13.839H13.839C6.196-13.839 0-7.643 0 0Z" style="stroke-width:15;stroke-linecap:round;stroke-linejoin:round;stroke-miterlimit:10;stroke-dasharray:none;stroke-opacity:1" transform="translate(64.26 114.514)" fill="none" stroke="#fb5a0f" stroke-width="15" stroke-linecap="round" stroke-linejoin="round" stroke-miterlimit="10" stroke-dasharray="none" stroke-opacity="" data-original="#000000" class=""></path><path d="M0 0v0c0 7.644 6.196 13.839 13.839 13.839h22.386c7.643 0 13.839-6.195 13.839-13.839v0c0-7.643-6.196-13.839-13.839-13.839H13.839C6.196-13.839 0-7.643 0 0Z" style="stroke-width:15;stroke-linecap:round;stroke-linejoin:round;stroke-miterlimit:10;stroke-dasharray:none;stroke-opacity:1" transform="translate(64.26 86.835)" fill="none" stroke="#fb5a0f" stroke-width="15" stroke-linecap="round" stroke-linejoin="round" stroke-miterlimit="10" stroke-dasharray="none" stroke-opacity="" data-original="#000000" class=""></path><path d="M0 0v0c0 7.644 6.196 13.839 13.839 13.839h22.386c7.643 0 13.839-6.195 13.839-13.839v0c0-7.643-6.196-13.839-13.839-13.839H13.839C6.196-13.839 0-7.643 0 0Z" style="stroke-width:15;stroke-linecap:round;stroke-linejoin:round;stroke-miterlimit:10;stroke-dasharray:none;stroke-opacity:1" transform="translate(194.988 142.192)" fill="none" stroke="#fb5a0f" stroke-width="15" stroke-linecap="round" stroke-linejoin="round" stroke-miterlimit="10" stroke-dasharray="none" stroke-opacity="" data-original="#000000" class=""></path><path d="M0 0v0c0 7.644 6.196 13.839 13.839 13.839h22.386c7.643 0 13.839-6.195 13.839-13.839v0c0-7.643-6.196-13.839-13.839-13.839H13.839C6.196-13.839 0-7.643 0 0Z" style="stroke-width:15;stroke-linecap:round;stroke-linejoin:round;stroke-miterlimit:10;stroke-dasharray:none;stroke-opacity:1" transform="translate(194.988 114.514)" fill="none" stroke="#fb5a0f" stroke-width="15" stroke-linecap="round" stroke-linejoin="round" stroke-miterlimit="10" stroke-dasharray="none" stroke-opacity="" data-original="#000000" class=""></path><path d="M0 0v0c0 7.644 6.196 13.839 13.839 13.839h22.386c7.643 0 13.839-6.195 13.839-13.839v0c0-7.643-6.196-13.839-13.839-13.839H13.839C6.196-13.839 0-7.643 0 0Z" style="stroke-width:15;stroke-linecap:round;stroke-linejoin:round;stroke-miterlimit:10;stroke-dasharray:none;stroke-opacity:1" transform="translate(194.988 86.835)" fill="none" stroke="#fb5a0f" stroke-width="15" stroke-linecap="round" stroke-linejoin="round" stroke-miterlimit="10" stroke-dasharray="none" stroke-opacity="" data-original="#000000" class=""></path><path d="M0 0v0c-22.757 0-41.206 18.448-41.206 41.206V146.44c0 22.757 18.449 41.206 41.206 41.206s41.206-18.449 41.206-41.206V41.206C41.206 18.448 22.757 0 0 0Z" style="stroke-width:15;stroke-linecap:round;stroke-linejoin:round;stroke-miterlimit:10;stroke-dasharray:none;stroke-opacity:1" transform="translate(411.291 252.454)" fill="none" stroke="#fb5a0f" stroke-width="15" stroke-linecap="round" stroke-linejoin="round" stroke-miterlimit="10" stroke-dasharray="none" stroke-opacity="" data-original="#000000" class=""></path><path d="M0 0c0 15.182-12.308 27.49-27.49 27.49-15.182 0-27.49-12.308-27.49-27.49 0-15.183 12.308-27.49 27.49-27.49C-12.308-27.49 0-15.183 0 0Z" style="stroke-width:15;stroke-linecap:round;stroke-linejoin:round;stroke-miterlimit:10;stroke-dasharray:none;stroke-opacity:1" transform="translate(182.147 194.308)" fill="none" stroke="#fb5a0f" stroke-width="15" stroke-linecap="round" stroke-linejoin="round" stroke-miterlimit="10" stroke-dasharray="none" stroke-opacity="" data-original="#000000" class=""></path><path d="M0 0v0c-9.968 0-18.048 8.081-18.048 18.048v6.935h36.096v-6.935C18.048 8.081 9.968 0 0 0Z" style="stroke-width:15;stroke-linecap:round;stroke-linejoin:round;stroke-miterlimit:10;stroke-dasharray:none;stroke-opacity:1" transform="translate(215.119 8.352)" fill="none" stroke="#fb5a0f" stroke-width="15" stroke-linecap="round" stroke-linejoin="round" stroke-miterlimit="10" stroke-dasharray="none" stroke-opacity="" data-original="#000000" class=""></path><path d="M0 0v0c-9.968 0-18.048 8.081-18.048 18.048v6.935h36.096v-6.935C18.048 8.081 9.968 0 0 0Z" style="stroke-width:15;stroke-linecap:round;stroke-linejoin:round;stroke-miterlimit:10;stroke-dasharray:none;stroke-opacity:1" transform="translate(94.194 8.352)" fill="none" stroke="#fb5a0f" stroke-width="15" stroke-linecap="round" stroke-linejoin="round" stroke-miterlimit="10" stroke-dasharray="none" stroke-opacity="" data-original="#000000" class=""></path></g></g></svg>