<svg xmlns="http://www.w3.org/2000/svg" version="1.1" xmlns:xlink="http://www.w3.org/1999/xlink" xmlns:svgjs="http://svgjs.com/svgjs" width="512" height="512" x="0" y="0" viewBox="0 0 512 512" style="enable-background:new 0 0 512 512" xml:space="preserve" class=""><g><path d="M43.931 201.642v216.599c0 7.756 6.31 14.066 14.066 14.066s14.066-6.31 14.066-14.066v-75.642c0-21.556 17.537-39.093 39.093-39.093h12.891" style="stroke-width:15;stroke-linecap:round;stroke-linejoin:round;stroke-miterlimit:10;" fill="none" stroke="#ffffff" stroke-width="15" stroke-linecap="round" stroke-linejoin="round" stroke-miterlimit="10" data-original="#000000" class=""></path><path d="M123.385 328.533h-12.23c-7.756 0-14.066 6.31-14.066 14.066v75.642c0 21.556-17.537 39.093-39.093 39.093-21.556 0-39.093-17.537-39.093-39.093V201.642M192.38 229.97V85.61c0-5.52 4.48-10 10-10h151.58M192.38 264.97v183.9c0 5.53 4.48 10 10 10h188.71M388.96 75.61H494.5c5.52 0 10 4.48 10 10v363.26c0 5.53-4.48 10-10 10h-68.41M218.025 72.174V27.5c0-11.046 8.954-20 20-20h220.831c11.046 0 20 8.954 20 20v44.674" style="stroke-width:15;stroke-linecap:round;stroke-linejoin:round;stroke-miterlimit:10;" fill="none" stroke="#ffffff" stroke-width="15" stroke-linecap="round" stroke-linejoin="round" stroke-miterlimit="10" data-original="#000000" class=""></path><path d="M441.969 428.454H254.911a5 5 0 0 1-5-5V164.978a5 5 0 0 1 5-5H441.97a5 5 0 0 1 5 5v258.476a5.001 5.001 0 0 1-5.001 5z" style="stroke-width:15;stroke-linecap:round;stroke-linejoin:round;stroke-miterlimit:10;" fill="none" stroke="#ffffff" stroke-width="15" stroke-linecap="round" stroke-linejoin="round" stroke-miterlimit="10" data-original="#000000" class=""></path><path d="M284.873 192.013h127.135v59.514H284.873zM249.911 462.229V494.5c0 5.523-4.477 10-10 10h-15.828c-5.523 0-10-4.477-10-10v-32.931M482.798 462.229V494.5c0 5.523-4.477 10-10 10H456.97c-5.523 0-10-4.477-10-10v-32.271" style="stroke-width:15;stroke-linecap:round;stroke-linejoin:round;stroke-miterlimit:10;" fill="none" stroke="#ffffff" stroke-width="15" stroke-linecap="round" stroke-linejoin="round" stroke-miterlimit="10" data-original="#000000" class=""></path><circle cx="348.44" cy="118.098" r="15.064" style="stroke-width:15;stroke-linecap:round;stroke-linejoin:round;stroke-miterlimit:10;" fill="none" stroke="#ffffff" stroke-width="15" stroke-linecap="round" stroke-linejoin="round" stroke-miterlimit="10" data-original="#000000" class=""></circle><circle cx="288.375" cy="118.098" r="15.064" style="stroke-width:15;stroke-linecap:round;stroke-linejoin:round;stroke-miterlimit:10;" fill="none" stroke="#ffffff" stroke-width="15" stroke-linecap="round" stroke-linejoin="round" stroke-miterlimit="10" data-original="#000000" class=""></circle><circle cx="408.506" cy="118.098" r="15.064" style="stroke-width:15;stroke-linecap:round;stroke-linejoin:round;stroke-miterlimit:10;" fill="none" stroke="#ffffff" stroke-width="15" stroke-linecap="round" stroke-linejoin="round" stroke-miterlimit="10" data-original="#000000" class=""></circle><circle cx="318.407" cy="378.638" r="15.064" style="stroke-width:15;stroke-linecap:round;stroke-linejoin:round;stroke-miterlimit:10;" fill="none" stroke="#ffffff" stroke-width="15" stroke-linecap="round" stroke-linejoin="round" stroke-miterlimit="10" data-original="#000000" class=""></circle><circle cx="378.473" cy="378.638" r="15.064" style="stroke-width:15;stroke-linecap:round;stroke-linejoin:round;stroke-miterlimit:10;" fill="none" stroke="#ffffff" stroke-width="15" stroke-linecap="round" stroke-linejoin="round" stroke-miterlimit="10" data-original="#000000" class=""></circle><path d="M318.407 363.575v-12.967c0-11.058-8.964-20.022-20.022-20.022H156.083" style="stroke-width:15;stroke-linecap:round;stroke-linejoin:round;stroke-miterlimit:10;" fill="none" stroke="#ffffff" stroke-width="15" stroke-linecap="round" stroke-linejoin="round" stroke-miterlimit="10" data-original="#000000" class=""></path><path d="M378.473 363.575v-32.089c0-16.587-13.446-30.033-30.033-30.033H156.083M149.726 346.363H131.07a5 5 0 0 1-5-5v-50.688a5 5 0 0 1 5-5h18.655a5 5 0 0 1 5 5v50.688a4.998 4.998 0 0 1-4.999 5zM7.5 120.62V93.45c0-5.62 2.66-10.92 7.17-14.28L31.42 66.7l16.74 12.47c4.51 3.36 7.17 8.66 7.17 14.28v97.27c0 4.91-3.98 8.9-8.9 8.9H16.4c-4.91 0-8.9-3.99-8.9-8.9v-35.1M31.417 66.659V7.5M58.191 116.965l33.285 33.285v49.369M280.672 72.174v-30.62h135.631v30.62" style="stroke-width:15;stroke-linecap:round;stroke-linejoin:round;stroke-miterlimit:10;" fill="none" stroke="#ffffff" stroke-width="15" stroke-linecap="round" stroke-linejoin="round" stroke-miterlimit="10" data-original="#000000" class=""></path></g></svg>