<svg xmlns="http://www.w3.org/2000/svg" version="1.1" xmlns:xlink="http://www.w3.org/1999/xlink" xmlns:svgjs="http://svgjs.com/svgjs" width="512" height="512" x="0" y="0" viewBox="0 0 682.667 682.667" style="enable-background:new 0 0 512 512" xml:space="preserve" class=""><g><defs><clipPath id="a" clipPathUnits="userSpaceOnUse"><path d="M0 512h512V0H0Z" fill="#fb5a0f" data-original="#000000"></path></clipPath></defs><g clip-path="url(#a)" transform="matrix(1.33333 0 0 -1.33333 0 682.667)"><path d="M0 0h423.579a8 8 0 0 1 8 8v17.132a8 8 0 0 1-8 8h-481a8 8 0 0 1-8-8V8a8 8 0 0 1 8-8H-35" style="stroke-width:15;stroke-linecap:round;stroke-linejoin:round;stroke-miterlimit:10;stroke-dasharray:none;stroke-opacity:1" transform="translate(72.921 7.5)" fill="none" stroke="#fb5a0f" stroke-width="15" stroke-linecap="round" stroke-linejoin="round" stroke-miterlimit="10" stroke-dasharray="none" stroke-opacity="" data-original="#000000" class=""></path><path d="M0 0h24.85a8.283 8.283 0 0 0 8.283-8.283v-33.134A8.283 8.283 0 0 0 24.85-49.7H0" style="stroke-width:15;stroke-linecap:round;stroke-linejoin:round;stroke-miterlimit:10;stroke-dasharray:none;stroke-opacity:1" transform="translate(123.467 239.434)" fill="none" stroke="#fb5a0f" stroke-width="15" stroke-linecap="round" stroke-linejoin="round" stroke-miterlimit="10" stroke-dasharray="none" stroke-opacity="" data-original="#000000" class=""></path><path d="M0 0h24.85a8.284 8.284 0 0 0 8.283-8.283v-16.568a8.284 8.284 0 0 0-8.283-8.283H0" style="stroke-width:15;stroke-linecap:round;stroke-linejoin:round;stroke-miterlimit:10;stroke-dasharray:none;stroke-opacity:1" transform="translate(305.7 206.302)" fill="none" stroke="#fb5a0f" stroke-width="15" stroke-linecap="round" stroke-linejoin="round" stroke-miterlimit="10" stroke-dasharray="none" stroke-opacity="" data-original="#000000" class=""></path><path d="M0 0h-24.85a8.284 8.284 0 0 0-8.284 8.283v16.568a8.284 8.284 0 0 0 8.284 8.283H0" style="stroke-width:15;stroke-linecap:round;stroke-linejoin:round;stroke-miterlimit:10;stroke-dasharray:none;stroke-opacity:1" transform="translate(57.2 173.168)" fill="none" stroke="#fb5a0f" stroke-width="15" stroke-linecap="round" stroke-linejoin="round" stroke-miterlimit="10" stroke-dasharray="none" stroke-opacity="" data-original="#000000" class=""></path><path d="M0 0h-182.233v-17.133c0-8.836 7.163-16 16-16H-16c8.837 0 16 7.164 16 16z" style="stroke-width:15;stroke-linecap:round;stroke-linejoin:round;stroke-miterlimit:10;stroke-dasharray:none;stroke-opacity:1" transform="translate(272.566 73.767)" fill="none" stroke="#fb5a0f" stroke-width="15" stroke-linecap="round" stroke-linejoin="round" stroke-miterlimit="10" stroke-dasharray="none" stroke-opacity="" data-original="#000000" class=""></path><path d="M0 0h16.158c9.15 0 16.567-7.417 16.567-16.566v-115.967c0-18.299-14.834-33.134-33.134-33.134h-182.233c-18.299 0-33.133 14.835-33.133 33.134v115.967c0 9.149 7.417 16.566 16.567 16.566h16.158" style="stroke-width:15;stroke-linecap:round;stroke-linejoin:round;stroke-miterlimit:10;stroke-dasharray:none;stroke-opacity:1" transform="translate(272.975 239.434)" fill="none" stroke="#fb5a0f" stroke-width="15" stroke-linecap="round" stroke-linejoin="round" stroke-miterlimit="10" stroke-dasharray="none" stroke-opacity="" data-original="#000000" class=""></path><path d="M0 0h25.133a8 8 0 0 1 8 8v66.833a8 8 0 0 1-8 8H8a8 8 0 0 1-8-8z" style="stroke-width:15;stroke-linecap:round;stroke-linejoin:round;stroke-miterlimit:10;stroke-dasharray:none;stroke-opacity:1" transform="translate(90.334 173.167)" fill="none" stroke="#fb5a0f" stroke-width="15" stroke-linecap="round" stroke-linejoin="round" stroke-miterlimit="10" stroke-dasharray="none" stroke-opacity="" data-original="#000000" class=""></path><path d="M0 0h-24.85a8.283 8.283 0 0 1-8.283-8.283v-33.134A8.283 8.283 0 0 1-24.85-49.7H0" style="stroke-width:15;stroke-linecap:round;stroke-linejoin:round;stroke-miterlimit:10;stroke-dasharray:none;stroke-opacity:1" transform="translate(239.433 239.434)" fill="none" stroke="#fb5a0f" stroke-width="15" stroke-linecap="round" stroke-linejoin="round" stroke-miterlimit="10" stroke-dasharray="none" stroke-opacity="" data-original="#000000" class=""></path><path d="M0 0h-25.133a8 8 0 0 0-8 8v66.833a8 8 0 0 0 8 8H-8a8 8 0 0 0 8-8z" style="stroke-width:15;stroke-linecap:round;stroke-linejoin:round;stroke-miterlimit:10;stroke-dasharray:none;stroke-opacity:1" transform="translate(272.566 173.167)" fill="none" stroke="#fb5a0f" stroke-width="15" stroke-linecap="round" stroke-linejoin="round" stroke-miterlimit="10" stroke-dasharray="none" stroke-opacity="" data-original="#000000" class=""></path><path d="M0 0v-33.134" style="stroke-width:15;stroke-linecap:round;stroke-linejoin:round;stroke-miterlimit:10;stroke-dasharray:none;stroke-opacity:1" transform="translate(90.334 173.167)" fill="none" stroke="#fb5a0f" stroke-width="15" stroke-linecap="round" stroke-linejoin="round" stroke-miterlimit="10" stroke-dasharray="none" stroke-opacity="" data-original="#000000" class=""></path><path d="M0 0v-33.134" style="stroke-width:15;stroke-linecap:round;stroke-linejoin:round;stroke-miterlimit:10;stroke-dasharray:none;stroke-opacity:1" transform="translate(272.566 173.167)" fill="none" stroke="#fb5a0f" stroke-width="15" stroke-linecap="round" stroke-linejoin="round" stroke-miterlimit="10" stroke-dasharray="none" stroke-opacity="" data-original="#000000" class=""></path><path d="M0 0h248.5" style="stroke-width:15;stroke-linecap:round;stroke-linejoin:round;stroke-miterlimit:10;stroke-dasharray:none;stroke-opacity:1" transform="translate(57.2 140.033)" fill="none" stroke="#fb5a0f" stroke-width="15" stroke-linecap="round" stroke-linejoin="round" stroke-miterlimit="10" stroke-dasharray="none" stroke-opacity="" data-original="#000000" class=""></path><path d="M0 0v156.716a8 8 0 0 0 8 8h33.7a8 8 0 0 0 8-8v-315.334a8 8 0 0 0-8-8H8a8 8 0 0 0-8 8V-34.9" style="stroke-width:15;stroke-linecap:round;stroke-linejoin:round;stroke-miterlimit:10;stroke-dasharray:none;stroke-opacity:1" transform="translate(156.6 306.651)" fill="none" stroke="#fb5a0f" stroke-width="15" stroke-linecap="round" stroke-linejoin="round" stroke-miterlimit="10" stroke-dasharray="none" stroke-opacity="" data-original="#000000" class=""></path><path d="M206.3 322.267h-49.7v33.134h49.7z" style="stroke-width:15;stroke-linecap:round;stroke-linejoin:round;stroke-miterlimit:10;stroke-dasharray:none;stroke-opacity:1" fill="none" stroke="#fb5a0f" stroke-width="15" stroke-linecap="round" stroke-linejoin="round" stroke-miterlimit="10" stroke-dasharray="none" stroke-opacity="" data-original="#000000" class=""></path><path d="M0 0c-6.47 6.47-6.47 16.959 0 23.429 6.47 6.469 16.959 6.469 23.429 0l35.143-35.143c6.47-6.47 6.47-16.959 0-23.429-6.469-6.469-16.959-6.469-23.428 0z" style="stroke-width:15;stroke-linecap:round;stroke-linejoin:round;stroke-miterlimit:10;stroke-dasharray:none;stroke-opacity:1" transform="translate(12.352 476.219)" fill="none" stroke="#fb5a0f" stroke-width="15" stroke-linecap="round" stroke-linejoin="round" stroke-miterlimit="10" stroke-dasharray="none" stroke-opacity="" data-original="#000000" class=""></path><path d="M0 0c6.47-6.469 6.47-16.959 0-23.429-6.47-6.469-16.959-6.469-23.429 0-6.469 6.47-6.469 16.96 0 23.429C-16.959 6.47-6.47 6.47 0 0Z" style="stroke-width:15;stroke-linecap:round;stroke-linejoin:round;stroke-miterlimit:10;stroke-dasharray:none;stroke-opacity:1" transform="translate(117.782 417.647)" fill="none" stroke="#fb5a0f" stroke-width="15" stroke-linecap="round" stroke-linejoin="round" stroke-miterlimit="10" stroke-dasharray="none" stroke-opacity="" data-original="#000000" class=""></path><path d="M0 0c6.47 6.47 6.47 16.959 0 23.429-6.47 6.469-16.959 6.469-23.429 0l-35.143-35.143c-6.47-6.47-6.47-16.959 0-23.429 6.469-6.469 16.959-6.469 23.428 0z" style="stroke-width:15;stroke-linecap:round;stroke-linejoin:round;stroke-miterlimit:10;stroke-dasharray:none;stroke-opacity:1" transform="translate(350.548 476.219)" fill="none" stroke="#fb5a0f" stroke-width="15" stroke-linecap="round" stroke-linejoin="round" stroke-miterlimit="10" stroke-dasharray="none" stroke-opacity="" data-original="#000000" class=""></path><path d="M0 0c-6.47-6.469-6.47-16.959 0-23.429 6.47-6.469 16.959-6.469 23.429 0 6.469 6.47 6.469 16.96 0 23.429C16.959 6.47 6.47 6.47 0 0Z" style="stroke-width:15;stroke-linecap:round;stroke-linejoin:round;stroke-miterlimit:10;stroke-dasharray:none;stroke-opacity:1" transform="translate(245.118 417.647)" fill="none" stroke="#fb5a0f" stroke-width="15" stroke-linecap="round" stroke-linejoin="round" stroke-miterlimit="10" stroke-dasharray="none" stroke-opacity="" data-original="#000000" class=""></path><path d="m0 0-35.143-35.144-17.772 17.773a8 8 0 0 0 0 11.313l23.83 23.829a7.998 7.998 0 0 0 11.313 0z" style="stroke-width:15;stroke-linecap:round;stroke-linejoin:round;stroke-miterlimit:10;stroke-dasharray:none;stroke-opacity:1" transform="translate(393.974 269.136)" fill="none" stroke="#fb5a0f" stroke-width="15" stroke-linecap="round" stroke-linejoin="round" stroke-miterlimit="10" stroke-dasharray="none" stroke-opacity="" data-original="#000000" class=""></path><path d="m0 0-1.603-1.603C-14.1-14.1-34.361-14.1-46.857-1.603l-88.86 88.86a7.998 7.998 0 0 0 0 11.313l35.544 35.544a8 8 0 0 0 11.313 0L0 45.255C12.497 32.758 12.497 12.497 0 0Z" style="stroke-width:15;stroke-linecap:round;stroke-linejoin:round;stroke-miterlimit:10;stroke-dasharray:none;stroke-opacity:1" transform="translate(494.348 135.222)" fill="none" stroke="#fb5a0f" stroke-width="15" stroke-linecap="round" stroke-linejoin="round" stroke-miterlimit="10" stroke-dasharray="none" stroke-opacity="" data-original="#000000" class=""></path><path d="m0 0 46.857 46.858" style="stroke-width:15;stroke-linecap:round;stroke-linejoin:round;stroke-miterlimit:10;stroke-dasharray:none;stroke-opacity:1" transform="translate(376.403 204.706)" fill="none" stroke="#fb5a0f" stroke-width="15" stroke-linecap="round" stroke-linejoin="round" stroke-miterlimit="10" stroke-dasharray="none" stroke-opacity="" data-original="#000000" class=""></path><path d="m0 0-63.84 63.841a16.567 16.567 0 0 1-11.715 4.852h-33.133c-9.149 0-16.567-7.417-16.567-16.567 0-9.149 7.418-16.566 16.567-16.566h26.271l58.989-58.989z" style="stroke-width:15;stroke-linecap:round;stroke-linejoin:round;stroke-miterlimit:10;stroke-dasharray:none;stroke-opacity:1" transform="translate(364.688 286.707)" fill="none" stroke="#fb5a0f" stroke-width="15" stroke-linecap="round" stroke-linejoin="round" stroke-miterlimit="10" stroke-dasharray="none" stroke-opacity="" data-original="#000000" class=""></path></g></g></svg>