<svg xmlns="http://www.w3.org/2000/svg" version="1.1" xmlns:xlink="http://www.w3.org/1999/xlink" xmlns:svgjs="http://svgjs.com/svgjs" width="512" height="512" x="0" y="0" viewBox="0 0 512 512" style="enable-background:new 0 0 512 512" xml:space="preserve" class=""><g><path d="m235.507 36.533 12.625 1.338a19.04 19.04 0 0 0 14.01-4.154h0c8.656-7.03 21.474-5.15 27.747 4.071l18.515 27.219M131.295 90.542l-14.002-27.005c-6.644-12.814-1.259-28.58 11.835-34.653h0a25.348 25.348 0 0 1 13.332-2.211l18.747 1.987M198.004 418.943h223.238v30.471H198.004z" style="stroke-width:15;stroke-linecap:round;stroke-linejoin:round;stroke-miterlimit:10;" fill="none" stroke="#fb5a0f" stroke-width="15" stroke-linecap="round" stroke-linejoin="round" stroke-miterlimit="10" data-original="#000000"></path><path d="M504.5 365.288H114.746l29.36 45.832a16.985 16.985 0 0 0 14.301 7.823h302.432a16.981 16.981 0 0 0 14.301-7.823l29.36-45.832zM120.273 255.886 228.562 59.54c9.353-16.979 3.171-38.325-13.807-47.677-16.98-9.353-38.326-3.17-47.677 13.807L67.314 206.538M413.132 365.288H260.53l21.159-47.221a13.126 13.126 0 0 1 11.979-7.759h86.326c5.173 0 9.864 3.038 11.979 7.759l21.159 47.221zM278.231 135.203h102.673v27.635H278.231zM304.396 162.838h50.343v45.7h-50.343zM329.567 208.537v66.241M42.791 232.246l117.578 110.973M180.61 68.621l-69.577 126.143M252.17 100.105h127.266M288.717 246.486l15.036 16.844M278.231 288.069l13.78-1.404M370.417 246.486l-15.036 16.844M380.904 288.069l-13.781-1.404M143.229 214.263l26.684 8.093c8.688 2.635 12.167 13.065 6.799 20.387h0a13.168 13.168 0 0 0-.007 15.562l11.616 15.875a13.171 13.171 0 0 1 2.219 10.672l-6.802 30.168" style="stroke-width:15;stroke-linecap:round;stroke-linejoin:round;stroke-miterlimit:10;" fill="none" stroke="#fb5a0f" stroke-width="15" stroke-linecap="round" stroke-linejoin="round" stroke-miterlimit="10" data-original="#000000"></path><path d="m435.417 100.105 8.241 8.732a30.985 30.985 0 0 1 7.991 26.586l-2.31 13.253c-2.586 14.835-15.464 25.663-30.523 25.663h0c-8.065 0-15.913 3.044-21.595 8.768-10.722 10.802-25.104 14.244-42.482 11.658M241.138 476.957h136.97M402.94 504.5h73.076v-35.031l-37.301-20.056H180.531l-37.302 20.056V504.5H373.94" style="stroke-width:15;stroke-linecap:round;stroke-linejoin:round;stroke-miterlimit:10;" fill="none" stroke="#fb5a0f" stroke-width="15" stroke-linecap="round" stroke-linejoin="round" stroke-miterlimit="10" data-original="#000000"></path><path d="M187.702 133.716a35.099 35.099 0 0 0 10.118 1.487h202.499c19.384 0 35.098-15.714 35.098-35.098s-15.714-35.098-35.098-35.098h-18.695M352.623 65.006H225.55M70.783 305.718l63.928 59.569H235.04a35.021 35.021 0 0 0-6.889-8.879L66.526 205.803c-14.182-13.216-36.393-12.43-49.606 1.751-13.215 14.181-12.43 36.391 1.751 49.606l30.766 28.668" style="stroke-width:15;stroke-linecap:round;stroke-linejoin:round;stroke-miterlimit:10;" fill="none" stroke="#fb5a0f" stroke-width="15" stroke-linecap="round" stroke-linejoin="round" stroke-miterlimit="10" data-original="#000000"></path></g></svg>