<svg xmlns="http://www.w3.org/2000/svg" version="1.1" xmlns:xlink="http://www.w3.org/1999/xlink" xmlns:svgjs="http://svgjs.com/svgjs" width="512" height="512" x="0" y="0" viewBox="0 0 682.667 682.667" style="enable-background:new 0 0 512 512" xml:space="preserve" class=""><g><defs><clipPath id="a" clipPathUnits="userSpaceOnUse"><path d="M0 512h512V0H0Z" fill="#ffffff" data-original="#000000" class=""></path></clipPath></defs><g clip-path="url(#a)" transform="matrix(1.33333 0 0 -1.33333 0 682.667)"><path d="M0 0h-126c-65.998 0-119.5 53.502-119.5 119.5v290.74c0 7.135 5.783 12.918 12.918 12.918h339.164c7.135 0 12.918-5.783 12.918-12.918V119.5C119.5 53.502 65.998 0 0 0Z" style="stroke-width:15;stroke-linecap:round;stroke-linejoin:round;stroke-miterlimit:10;stroke-dasharray:225, 35, 600, 0;stroke-dashoffset:0;stroke-opacity:1" transform="translate(319 7.5)" fill="none" stroke="#ffffff" stroke-width="15" stroke-linecap="round" stroke-linejoin="round" stroke-miterlimit="10" stroke-dasharray="225, 35, 600, 0" stroke-dashoffset="0" stroke-opacity="" data-original="#000000"></path><path d="M0 0h-250.949c-10.439 0-18.901 8.462-18.901 18.9v98.7c0 10.438 8.462 18.9 18.901 18.9H0c10.438 0 18.9-8.462 18.9-18.9V18.9C18.9 8.462 10.438 0 0 0Z" style="stroke-width:15;stroke-linecap:round;stroke-linejoin:round;stroke-miterlimit:10;stroke-dasharray:none;stroke-opacity:1" transform="translate(381.475 237.61)" fill="none" stroke="#ffffff" stroke-width="15" stroke-linecap="round" stroke-linejoin="round" stroke-miterlimit="10" stroke-dasharray="none" stroke-opacity="" data-original="#000000"></path><path d="M0 0v69.9a6 6 0 0 0 6 6h222.15a6 6 0 0 0 6-6V0a6 6 0 0 0-6-6H6a6 6 0 0 0-6 6Z" style="stroke-width:15;stroke-linecap:round;stroke-linejoin:round;stroke-miterlimit:10;stroke-dasharray:none;stroke-opacity:1" transform="translate(138.925 270.91)" fill="none" stroke="#ffffff" stroke-width="15" stroke-linecap="round" stroke-linejoin="round" stroke-miterlimit="10" stroke-dasharray="none" stroke-opacity="" data-original="#000000"></path><path d="M0 0v-60" style="stroke-width:15;stroke-linecap:round;stroke-linejoin:round;stroke-miterlimit:10;stroke-dasharray:none;stroke-opacity:1" transform="translate(256 107)" fill="none" stroke="#ffffff" stroke-width="15" stroke-linecap="round" stroke-linejoin="round" stroke-miterlimit="10" stroke-dasharray="none" stroke-opacity="" data-original="#000000"></path><path d="M0 0v-52" style="stroke-width:15;stroke-linecap:round;stroke-linejoin:round;stroke-miterlimit:10;stroke-dasharray:none;stroke-opacity:1" transform="translate(226 103)" fill="none" stroke="#ffffff" stroke-width="15" stroke-linecap="round" stroke-linejoin="round" stroke-miterlimit="10" stroke-dasharray="none" stroke-opacity="" data-original="#000000"></path><path d="M0 0v-44" style="stroke-width:15;stroke-linecap:round;stroke-linejoin:round;stroke-miterlimit:10;stroke-dasharray:none;stroke-opacity:1" transform="translate(196 99)" fill="none" stroke="#ffffff" stroke-width="15" stroke-linecap="round" stroke-linejoin="round" stroke-miterlimit="10" stroke-dasharray="none" stroke-opacity="" data-original="#000000"></path><path d="M0 0v-52" style="stroke-width:15;stroke-linecap:round;stroke-linejoin:round;stroke-miterlimit:10;stroke-dasharray:none;stroke-opacity:1" transform="translate(286 103)" fill="none" stroke="#ffffff" stroke-width="15" stroke-linecap="round" stroke-linejoin="round" stroke-miterlimit="10" stroke-dasharray="none" stroke-opacity="" data-original="#000000"></path><path d="M0 0v-44" style="stroke-width:15;stroke-linecap:round;stroke-linejoin:round;stroke-miterlimit:10;stroke-dasharray:none;stroke-opacity:1" transform="translate(316 99)" fill="none" stroke="#ffffff" stroke-width="15" stroke-linecap="round" stroke-linejoin="round" stroke-miterlimit="10" stroke-dasharray="none" stroke-opacity="" data-original="#000000"></path><path d="M0 0h-18.5a9 9 0 0 0-9 9v55.827a9 9 0 0 0 9 9H0Z" style="stroke-width:15;stroke-linecap:round;stroke-linejoin:round;stroke-miterlimit:10;stroke-dasharray:none;stroke-opacity:1" transform="translate(73.5 260.687)" fill="none" stroke="#ffffff" stroke-width="15" stroke-linecap="round" stroke-linejoin="round" stroke-miterlimit="10" stroke-dasharray="none" stroke-opacity="" data-original="#000000"></path><path d="M0 0h18.5a9 9 0 0 0 9-9v-55.827a9 9 0 0 0-9-9H0Z" style="stroke-width:15;stroke-linecap:round;stroke-linejoin:round;stroke-miterlimit:10;stroke-dasharray:none;stroke-opacity:1" transform="translate(438.5 334.514)" fill="none" stroke="#ffffff" stroke-width="15" stroke-linecap="round" stroke-linejoin="round" stroke-miterlimit="10" stroke-dasharray="none" stroke-opacity="" data-original="#000000"></path><path d="M0 0c-33.255 44.803-86.551 73.842-146.634 73.842-60.083 0-113.379-29.039-146.634-73.842Z" style="stroke-width:15;stroke-linecap:round;stroke-linejoin:round;stroke-miterlimit:10;stroke-dasharray:60, 35, 400, 0;stroke-dashoffset:0;stroke-opacity:1" transform="translate(402.634 430.658)" fill="none" stroke="#ffffff" stroke-width="15" stroke-linecap="round" stroke-linejoin="round" stroke-miterlimit="10" stroke-dasharray="60, 35, 400, 0" stroke-dashoffset="0" stroke-opacity="" data-original="#000000"></path></g></g></svg>