<svg xmlns="http://www.w3.org/2000/svg" version="1.1" xmlns:xlink="http://www.w3.org/1999/xlink" xmlns:svgjs="http://svgjs.com/svgjs" width="512" height="512" x="0" y="0" viewBox="0 0 512 512" style="enable-background:new 0 0 512 512" xml:space="preserve" class=""><g><path d="M129.977 105.908c9.916-.307 9.909-14.696 0-15H91.326a7.5 7.5 0 0 0-7.5 7.5v64.641a7.5 7.5 0 0 0 7.5 7.5h223a7.5 7.5 0 0 0 7.5-7.5V98.408a7.5 7.5 0 0 0-7.5-7.5H164.787c-9.916.307-9.909 14.696 0 15h142.039v49.641h-208v-49.641zM265.576 266.545c0-5.087-.611-10.15-1.816-15.049a7.501 7.501 0 0 0-14.566 3.584c7.641 29.506-15.828 59.65-46.368 59.24-26.329 0-47.75-21.431-47.75-47.775-.285-40.927 49.532-63.115 79.69-35.515a7.5 7.5 0 0 0 10.041-11.143c-39.632-36.274-105.113-7.122-104.731 46.658 3.153 83.162 122.357 83.146 125.5 0z" fill="#ffffff" data-original="#000000" class=""></path><path d="m197.521 261.243-15.983 15.991a7.5 7.5 0 1 0 10.609 10.603l15.983-15.991a7.5 7.5 0 1 0-10.609-10.603zM157.576 368.58v59.952c.307 9.916 14.696 9.909 15 0V368.58c-.307-9.916-14.696-9.909-15 0zM122.576 368.58v59.952c.307 9.916 14.696 9.909 15 0V368.58c-.307-9.916-14.696-9.909-15 0zM192.576 368.58v59.952c.307 9.916 14.696 9.909 15 0V368.58c-.307-9.916-14.696-9.909-15 0zM87.576 368.58v59.952c.307 9.916 14.696 9.909 15 0V368.58c-.307-9.916-14.696-9.909-15 0z" fill="#ffffff" data-original="#000000" class=""></path><path d="M455.353 168.732h-9.714v-15.609c0-13.895-9.529-25.606-22.395-28.942V98.288l37.413-37.416a7.5 7.5 0 1 0-10.607-10.605l-39.61 39.612a7.498 7.498 0 0 0-2.196 5.303v29c-12.866 3.336-22.395 15.047-22.395 28.942v137.422c0 13.895 9.529 25.606 22.395 28.943v36.065c0 19.577-15.925 35.504-35.5 35.504h-15.239V81.084c0-13.921-11.326-25.247-25.247-25.247h-49.083V38.129C283.175 17.104 266.071 0 245.047 0h-84.441c-21.024 0-38.128 17.104-38.128 38.129v17.708H74.394c-13.921 0-25.247 11.326-25.247 25.247v301.677c.307 9.916 14.696 9.909 15 0V81.084c0-5.65 4.597-10.247 10.247-10.247h257.864c5.65 0 10.247 4.597 10.247 10.247v309.973h-21.434c-9.926-43.659-73.093-37.685-74.24 7.501 1.152 45.193 64.321 51.148 74.24 7.499h21.434v54.859H64.147v-43.111c-.307-9.916-14.696-9.909-15 0v50.611a7.5 7.5 0 0 0 7.5 7.5h22.5V504.5a7.5 7.5 0 0 0 7.5 7.5h30a7.5 7.5 0 0 0 7.5-7.5v-28.584h158.358V504.5a7.5 7.5 0 0 0 7.5 7.5h30a7.5 7.5 0 0 0 7.5-7.5v-28.584h22.5a7.5 7.5 0 0 0 7.5-7.5v-62.359h15.239c27.846 0 50.5-22.656 50.5-50.504v-36.065c12.866-3.336 22.395-15.048 22.395-28.943v-51.349c-.307-9.916-14.696-9.909-15 0v20.849h-29.79V153.123c.751-19.737 29.046-19.723 29.79 0v51.029c.307 9.916 14.696 9.909 15 0v-20.42h9.714c9.916-.307 9.909-14.696 0-15zM137.477 55.837V38.129c0-12.753 10.375-23.129 23.128-23.129h84.441c12.753 0 23.128 10.376 23.128 23.129v17.708zm146.852 365.195c-12.405 0-22.498-10.082-22.498-22.476.481-25.339 35.017-30.947 43.707-7.5h-21.209c-9.916.307-9.909 14.696 0 15h21.209c-3.098 8.717-11.435 14.976-21.209 14.976zM109.147 497h-15v-21.084h15zm203.358 0h-15v-21.084h15zm118.134-221.955v15.5c-.751 19.739-29.046 19.724-29.79 0v-15.5z" fill="#ffffff" data-original="#000000" class=""></path><path d="M111.324 314.318c-9.914.306-9.911 14.695 0 15 9.914-.306 9.912-14.695 0-15zM111.324 203.769c-9.914.306-9.911 14.695 0 15 9.914-.307 9.912-14.696 0-15zM294.324 218.769c9.914-.306 9.911-14.695 0-15-9.913.306-9.911 14.695 0 15zM294.324 314.318c-9.914.306-9.911 14.695 0 15 9.914-.306 9.912-14.695 0-15z" fill="#ffffff" data-original="#000000" class=""></path></g></svg>