<svg xmlns="http://www.w3.org/2000/svg" version="1.1" xmlns:xlink="http://www.w3.org/1999/xlink" xmlns:svgjs="http://svgjs.com/svgjs" width="512" height="512" x="0" y="0" viewBox="0 0 64 64" style="enable-background:new 0 0 512 512" xml:space="preserve" class=""><g><path d="M43 28V14a1 1 0 0 0 1-1V9a1 1 0 0 0-1-1h-3a1 1 0 0 0-1-1h-4a1 1 0 0 0-1 1H20a1 1 0 0 0-1-1h-4a1 1 0 0 0-1 1h-3a1 1 0 0 0-1 1v4a1 1 0 0 0 1 1v14a4 4 0 0 0 4 4h24a4 4 0 0 0 4-4Zm-1-18v2h-2v-2Zm-6-1h2v4h-2Zm-2 1v2H20v-2ZM16 9h2v4h-2Zm-4 1h2v2h-2Zm1 18v-4.586l2.707-2.707-1.414-1.414L13 20.586V14h1a1 1 0 0 0 1 1h4a1 1 0 0 0 1-1h5.586l-4.793 4.793 1.414 1.414L28.414 14H34a1 1 0 0 0 1 1h4a1 1 0 0 0 1-1h1v4.586l-4.707 4.707 1.414 1.414L41 21.414V28a2 2 0 0 1-2 2h-6.586l3.293-3.293-1.414-1.414L29.586 30h-8.172l9.793-9.793-1.414-1.414L18.586 30H15a2 2 0 0 1-2-2Z" fill="#ffffff" data-original="#000000" class=""></path><path d="M48.85 43.436A22.276 22.276 0 0 0 49 41V30h3a1 1 0 0 0 1-1V19a1 1 0 0 0-1-1h-3V8a7.008 7.008 0 0 0-7-7H12a7.008 7.008 0 0 0-7 7v10H2a1 1 0 0 0-1 1v10a1 1 0 0 0 1 1h3v11a22 22 0 0 0 41.244 10.658L51.586 57 50.5 58.086l-.793-.793-1.414 1.414 3 3 1.414-1.414-.793-.793L53 58.414l4.293 4.293a1 1 0 0 0 1.414 0l4-4a1 1 0 0 0 0-1.414Zm-4.35 2.65-6.793-6.793a1 1 0 0 0-1.414 0l-2.8 2.8-2.114.529.528-2.114 5.1-5.1 9.079 9.092ZM51 20v8h-2v-8ZM3 28v-8h2v8Zm24 33A20.023 20.023 0 0 1 7 41V8a5.006 5.006 0 0 1 5-5h30a5.006 5.006 0 0 1 5 5v33c0 .509-.02 1.019-.059 1.527l-9.234-9.234a1 1 0 0 0-1.414 0l-6 6a1 1 0 0 0-.263.465l-1 4a1 1 0 0 0 1.213 1.212l4-1a1 1 0 0 0 .464-.263L37 41.414l6.128 6.128a.987.987 0 0 0 .165 1.165l1.468 1.468A20.1 20.1 0 0 1 27 61Zm31-.414L45.414 48 48 45.414 60.586 58Z" fill="#ffffff" data-original="#000000" class=""></path><path d="M28 45h-1a10.011 10.011 0 0 0-10 10v1a1 1 0 0 0 1 1h1a10.011 10.011 0 0 0 10-10v-1a1 1 0 0 0-1-1Zm-9 10a8.009 8.009 0 0 1 8-8 8.009 8.009 0 0 1-8 8Z" fill="#ffffff" data-original="#000000" class=""></path></g></svg>