<svg xmlns="http://www.w3.org/2000/svg" version="1.1" xmlns:xlink="http://www.w3.org/1999/xlink" xmlns:svgjs="http://svgjs.com/svgjs" width="512" height="512" x="0" y="0" viewBox="0 0 64 64" style="enable-background:new 0 0 512 512" xml:space="preserve" class=""><g><path d="M57 56a1 1 0 0 0-1 1v3h-6V43.06a13 13 0 0 1 6 10 1 1 0 0 0 1 .94 1 1 0 0 0 1-1.07A15 15 0 0 0 43 39h-4v-2.43A11 11 0 0 0 47 26v-4h2a2 2 0 0 0 2-2v-4a2 2 0 0 0-2-2h-2V9a7 7 0 0 0-7-7H24a7 7 0 0 0-6.9 5.84 1 1 0 0 0 2 .32A5 5 0 0 1 24 4h16a5 5 0 0 1 5 5v17a9 9 0 0 1-9 9h-8a9 9 0 0 1-9-9V12a1 1 0 0 0-2 0v1h-2a2 2 0 0 0-2 2v4a2 2 0 0 0 2 2h2v5a11 11 0 0 0 8 10.57V39h-4A15 15 0 0 0 6 54v7a1 1 0 0 0 1 1h50a1 1 0 0 0 1-1v-4a1 1 0 0 0-1-1zm-8-40v4h-2v-4zm-34 3v-4h2v4zm1 32v-9a13.19 13.19 0 0 1 3-.83V51zm32 2v7H16v-7zm0-2h-3v-9.83a13.21 13.21 0 0 1 3 .83zM28 37h9v2.84c-.25.49-1.37 2.21-5 2.21s-4.76-1.73-5-2.2V37zm-2.61 4c.66 1.07 2.42 3 6.61 3s6-1.93 6.61-3H43v10H21V41zM8 54a13 13 0 0 1 6-10.94V60H8zm33-31a1 1 0 0 0 1-1V12a1 1 0 0 0-1-1H23a1 1 0 0 0-1 1v10a1 1 0 0 0 1 1zM24 13h16v8H24z" data-name="21-Welder" fill="#ffffff" data-original="#000000" class=""></path></g></svg>